PathFileType	3	(X/Y/Z)	D:\Students\303\Renee\Session 1\Renee Cal 01.trc
DataRate	CameraRate	NumFrames	NumMarkers	Units	OrigDataRate	OrigDataStartFrame	OrigNumFrames
100.0	100.0	15	27	mm	100.0	300	599	
Frame#	Time	RASIS			LASIS			RPSIS			LPSIS			RKneeLateral			RKneeMedial			LKneeLateral			LKneeMedial			RAnkleLateral			RAnkleMedial			RShank			RFibula			LAnkleLateral			LAnkleMedial			LShank			LFibula			RMT2			RHeel			RMT5			RToe			LMT2			LHeel			LMT5			LToe			Sternum			LShoulder			RShoulder			
		X1	Y1	Z1	X2	Y2	Z2	X3	Y3	Z3	X4	Y4	Z4	X5	Y5	Z5	X6	Y6	Z6	X7	Y7	Z7	X8	Y8	Z8	X9	Y9	Z9	X10	Y10	Z10	X11	Y11	Z11	X12	Y12	Z12	X13	Y13	Z13	X14	Y14	Z14	X15	Y15	Z15	X16	Y16	Z16	X17	Y17	Z17	X18	Y18	Z18	X19	Y19	Z19	X20	Y20	Z20	X21	Y21	Z21	X22	Y22	Z22	X23	Y23	Z23	X24	Y24	Z24	X25	Y25	Z25	X26	Y26	Z26	X27	Y27	Z27	
300	2.99	-146.4001	886.58978	-494.84537	-421.29187	888.49878	-492.71863	-221.16498	942.90747	-283.89468	-341.20944	946.36523	-280.04926	-114.82066	428.80612	-381.56683				-478.991	441.60968	-367.63507										-105.77703	313.92731	-362.43121	-113.39668	389.27652	-372.53726	-451.96899	56.625336	-360.83121				-475.26431	313.71426	-386.03284	-481.94547	409.3609	-359.53592	-177.29414	23.763952	-515.62262	-189.56445	21.031668	-304.2207	-136.23804	20.357395	-495.41483				-415.79153	21.369383	-523.79034	-402.784	29.710621	-312.57849	-453.59979	19.201023	-497.34045				-293.1843	1307.6582	-475.76181	-427.71149	1359.0118	-367.90381	-132.89362	1367.2393	-402.36911
301	3	-146.38687	886.63806	-494.85956	-421.26904	888.48425	-492.7507	-221.17334	942.95538	-283.87067	-341.22189	946.38818	-280.05789	-114.82615	428.82474	-381.57767				-479.01025	441.63986	-367.62061										-105.78561	313.94489	-362.43982	-113.38715	389.30389	-372.55893	-451.9642	56.633537	-360.82452				-475.24158	313.71515	-386.01508	-481.90799	409.37207	-359.52322	-177.29663	23.775169	-515.61658	-189.5746	21.031481	-304.2309	-136.23985	20.363588	-495.41763				-415.80756	21.382603	-523.78693	-402.78104	29.749561	-312.57263	-453.61053	19.217224	-497.33682				-293.17969	1307.666	-475.76334	-427.73691	1359.0114	-367.90131	-132.90282	1367.2689	-402.38388
302	3.01	-146.36278	886.67596	-494.83856	-421.2482	888.48505	-492.75479	-221.17345	942.96814	-283.85654	-341.2258	946.38989	-280.06711	-114.82552	428.83206	-381.55981				-478.94809	441.62302	-367.63345										-105.78553	313.96707	-362.41293	-113.38155	389.32187	-372.55298	-451.95502	56.641342	-360.81909				-475.21054	313.73575	-385.99802	-481.88235	409.37891	-359.51306	-177.29593	23.787451	-515.62433	-189.58411	21.050018	-304.23163	-136.25383	20.371685	-495.40659				-415.8063	21.385708	-523.77631	-402.82971	29.779526	-312.52899	-453.60901	19.227131	-497.3306				-293.18698	1307.6495	-475.75159	-427.75763	1359.0044	-367.91168	-132.9124	1367.2969	-402.38541
303	3.02	-146.3175	886.70764	-494.82205	-421.2059	888.48499	-492.77939	-221.17786	942.98157	-283.83682	-341.23413	946.39795	-280.07547	-114.82504	428.8432	-381.5571				-478.92786	441.61356	-367.65176										-105.77203	313.99182	-362.40707	-113.38409	389.33337	-372.54141	-451.95691	56.64045	-360.82886				-475.22037	313.76358	-386.01294	-481.85565	409.38333	-359.51489	-177.29282	23.792921	-515.6145	-189.58669	21.049244	-304.2272	-136.24173	20.378506	-495.40906				-415.83286	21.411089	-523.7821	-402.87012	29.796577	-312.48975	-453.62085	19.227297	-497.32227				-293.20694	1307.6589	-475.7424	-427.76675	1358.9918	-367.90421	-132.92241	1367.3203	-402.38684
304	3.03	-146.27461	886.71759	-494.79562	-421.14322	888.48401	-492.79132	-221.17039	942.98291	-283.83139	-341.22946	946.3894	-280.08832	-114.8092	428.86237	-381.53632				-478.9473	441.6629	-367.65274										-105.77393	313.98151	-362.40192	-113.37383	389.34213	-372.53369	-451.9606	56.650211	-360.82434				-475.19788	313.76016	-386.03909	-481.84241	409.3959	-359.54117	-177.29694	23.79472	-515.62445	-189.60318	21.054541	-304.24295	-136.25249	20.385368	-495.41003				-415.82703	21.418243	-523.78156	-402.80148	29.778521	-312.5733	-453.62961	19.24144	-497.33356				-293.22675	1307.6505	-475.73383	-427.77185	1358.9875	-367.89209	-132.9453	1367.3488	-402.37726
305	3.04	-146.218	886.71924	-494.76501	-421.10745	888.49017	-492.82825	-221.15265	942.96436	-283.80774	-341.20648	946.37225	-280.1041	-114.79073	428.85654	-381.53693				-478.8811	441.62271	-367.69931										-105.76521	313.96527	-362.38055	-113.35413	389.3371	-372.5116	-451.95316	56.642994	-360.85068				-475.19611	313.78159	-386.07047	-481.8277	409.40408	-359.57147	-177.28673	23.812645	-515.62549	-189.59262	21.059437	-304.233	-136.24774	20.397179	-495.40958				-415.84171	21.431185	-523.7818	-402.84006	29.797939	-312.48218	-453.63126	19.24864	-497.33231				-293.23618	1307.6349	-475.72522	-427.76556	1358.9745	-367.87363	-132.96562	1367.3469	-402.36661
306	3.05	-146.15396	886.69482	-494.73291	-421.05725	888.49225	-492.83521	-221.1127	942.92426	-283.81815	-341.17093	946.33838	-280.11655	-114.77005	428.83313	-381.52759				-478.88467	441.6347	-367.74579										-105.75401	313.9375	-362.36606	-113.33454	389.31177	-372.49503	-451.96646	56.652332	-360.8717				-475.18219	313.77982	-386.11182	-481.81589	409.40887	-359.617	-177.2906	23.820326	-515.62592	-189.61136	21.063349	-304.24579	-136.24319	20.386593	-495.41196				-415.84039	21.43399	-523.79492	-402.80621	29.766594	-312.52399	-453.63031	19.242588	-497.33557				-293.25543	1307.6301	-475.70798	-427.76608	1358.9445	-367.84277	-132.96465	1367.338	-402.35324
307	3.06	-146.09344	886.66278	-494.68137	-421.02435	888.49792	-492.8688	-221.08018	942.88623	-283.82184	-341.13278	946.31067	-280.12045	-114.74001	428.80832	-381.5065				-478.86298	441.61392	-367.79102										-105.72943	313.9277	-362.34958	-113.32127	389.27805	-372.46078	-451.95816	56.643925	-360.87854				-475.15628	313.77475	-386.14334	-481.80319	409.41034	-359.66302	-177.27397	23.809641	-515.62787	-189.60152	21.062561	-304.24173	-136.23946	20.39217	-495.41742				-415.84497	21.428955	-523.78723	-402.8046	29.719252	-312.54114	-453.62442	19.229954	-497.34747				-293.26364	1307.6189	-475.68317	-427.7626	1358.9147	-367.81287	-132.97955	1367.3251	-402.33401
308	3.07	-146.0406	886.64508	-494.6626	-420.9855	888.505	-492.88577	-221.0573	942.87225	-283.81824	-341.10721	946.30847	-280.12491	-114.717	428.79437	-381.48065				-478.86215	441.61105	-367.83716										-105.71037	313.9122	-362.34518	-113.28571	389.2814	-372.4483	-451.95956	56.646935	-360.87805				-475.15775	313.77902	-386.16388	-481.79929	409.41858	-359.69116	-177.28287	23.811869	-515.61993	-189.57983	21.067097	-304.23682	-136.23547	20.381479	-495.41568				-415.83453	21.416224	-523.79517	-402.77814	29.721262	-312.55118	-453.62094	19.224085	-497.33923				-293.27328	1307.6057	-475.65262	-427.7663	1358.8918	-367.78998	-132.96631	1367.316	-402.31622
309	3.08	-146.00446	886.63226	-494.65063	-420.95187	888.5011	-492.9021	-221.03654	942.87451	-283.81186	-341.08585	946.30884	-280.12564	-114.69507	428.7843	-381.4559				-478.85239	441.6203	-367.86011										-105.70758	313.89691	-362.33954	-113.27616	389.26669	-372.43213	-451.95416	56.645592	-360.89246				-475.13385	313.76846	-386.1777	-481.78296	409.41504	-359.7063	-177.27585	23.79213	-515.62921	-189.57733	21.050207	-304.22424	-136.2307	20.376272	-495.42661				-415.83081	21.413477	-523.80505	-402.76019	29.706223	-312.58136	-453.61407	19.214605	-497.34995				-293.27197	1307.5945	-475.62543	-427.7825	1358.8685	-367.76248	-132.96684	1367.3138	-402.29712
310	3.09	-145.99973	886.63098	-494.64264	-420.94833	888.50903	-492.89417	-221.03348	942.89056	-283.80072	-341.07568	946.32635	-280.12003	-114.68078	428.78259	-381.43793				-478.83609	441.64697	-367.81525										-105.69339	313.88666	-362.33649	-113.25009	389.27536	-372.40234	-451.94052	56.628281	-360.89114				-475.13303	313.76584	-386.18811	-481.78445	409.41644	-359.71887	-177.26953	23.790739	-515.63409	-189.57309	21.050266	-304.22919	-136.22627	20.356207	-495.41391				-415.83972	21.404245	-523.81299	-402.78842	29.699802	-312.56076	-453.61298	19.206455	-497.36032				-293.28528	1307.5886	-475.59427	-427.79349	1358.8405	-367.73587	-132.96858	1367.3193	-402.25497
311	3.1	-145.98688	886.64551	-494.63724	-420.94769	888.50336	-492.90781	-221.02711	942.91125	-283.79214	-341.07364	946.34277	-280.11877	-114.66664	428.78769	-381.43124				-478.84116	441.60086	-367.87192										-105.67032	313.8912	-362.30811	-113.25887	389.27145	-372.38745	-451.94604	56.619663	-360.87808				-475.15384	313.76398	-386.17346	-481.76813	409.38809	-359.72513	-177.27055	23.780531	-515.63147	-189.56886	21.034655	-304.22083	-136.22917	20.340439	-495.42612				-415.82437	21.388443	-523.80157	-402.73889	29.707964	-312.6214	-453.60114	19.193478	-497.35419				-293.27832	1307.5872	-475.55075	-427.8096	1358.8289	-367.71451	-132.98599	1367.3375	-402.19928
312	3.11	-145.98524	886.67352	-494.63892	-420.94849	888.51001	-492.91251	-221.03976	942.94604	-283.77512	-341.08194	946.35834	-280.11362	-114.65947	428.79263	-381.4231				-478.81497	441.60135	-367.84753										-105.67173	313.89566	-362.29883	-113.23225	389.29114	-372.38925	-451.94379	56.61647	-360.88004				-475.13257	313.76031	-386.15768	-481.76108	409.40176	-359.70752	-177.26836	23.788412	-515.62762	-189.58008	21.035416	-304.22324	-136.23372	20.343765	-495.41733				-415.85153	21.399513	-523.78137	-402.7973	29.72044	-312.57901	-453.60547	19.196121	-497.34976				-293.27576	1307.5876	-475.51993	-427.82236	1358.8213	-367.68182	-132.99159	1367.3467	-402.14685
313	3.12	-145.9996	886.71417	-494.65378	-420.92526	888.49402	-492.90387	-221.04385	942.98212	-283.76892	-341.09357	946.38776	-280.1142	-114.65669	428.81061	-381.41174				-478.81039	441.61597	-367.8446										-105.67527	313.91006	-362.29749	-113.22686	389.31763	-372.40442	-451.95544	56.644356	-360.88016				-475.09671	313.75708	-386.14154	-481.7471	409.40668	-359.69315	-177.24661	23.790606	-515.62158	-189.57166	21.04615	-304.20819	-136.22195	20.349585	-495.40503				-415.83347	21.387199	-523.78448	-402.84021	29.795845	-312.49533	-453.60468	19.211552	-497.33032				-293.25204	1307.5883	-475.47766	-427.84052	1358.8209	-367.646	-132.99371	1367.3688	-402.09576
314	3.13	-145.9722	886.75299	-494.65643	-420.91119	888.49377	-492.91193	-221.06465	942.99725	-283.74875	-341.10855	946.39404	-280.10812	-114.64751	428.82932	-381.39346				-478.81152	441.60806	-367.86017										-105.67254	313.91879	-362.28363	-113.2058	389.32217	-372.3884	-451.95792	56.650951	-360.87222				-475.06918	313.76224	-386.14246	-481.71152	409.41324	-359.69183	-177.24187	23.803089	-515.60443	-189.56395	21.042976	-304.21777	-136.21161	20.350975	-495.39426				-415.84708	21.406361	-523.76654	-402.84976	29.789324	-312.51059	-453.60321	19.220984	-497.31711				-293.24902	1307.6022	-475.43375	-427.84622	1358.8046	-367.6001	-133.00893	1367.3711	-402.04587
